<svg xmlns="http://www.w3.org/2000/svg" viewBox="0 0 32 32" width="32" height="32"><circle fill="#181818" cx="16" cy="16" r="16"/><path fill="#FFF" d="M16 7c-5 0-9 4-9 9 0 4 2.6 7.4 6.2 8.6.5.1.7-.2.7-.5v-1.7c-2.5.5-3-1.1-3-1.1-.4-1-1-1.3-1-1.3-.8-.6.1-.6.1-.6.9.1 1.4.9 1.4.9.8 1.4 2.1 1 2.6.8.1-.6.3-1 .5-1.2-2-.2-4.1-1-4.1-4.3 0-.9.3-1.6.8-2.2-.1-.2-.3-1 .1-2.1 0 0 .7-.2 2.2.8.7-.2 1.5-.3 2.2-.3s1.5.1 2.2.3c1.5-1 2.2-.8 2.2-.8.4 1.1.2 1.9.1 2.1.5.6.8 1.3.8 2.2 0 3.3-2.1 4.1-4.1 4.3.3.3.5.7.5 1.4v2c0 .3.2.6.7.5C22.4 23.4 25 20 25 16c0-5-4-9-9-9z"/></svg>
